<?xml version="1.0" encoding="UTF-8" standalone="no"?>
<!-- Created with Inkscape (http://www.inkscape.org/) -->

<svg
   width="1086"
   height="500"
   viewBox="0 0 287.33721 132.29167"
   version="1.1"
   id="svg1"
   inkscape:version="1.3.2 (091e20e, 2023-11-25, custom)"
   sodipodi:docname="logo.svg"
   xmlns:inkscape="http://www.inkscape.org/namespaces/inkscape"
   xmlns:sodipodi="http://sodipodi.sourceforge.net/DTD/sodipodi-0.dtd"
   xmlns="http://www.w3.org/2000/svg"
   xmlns:svg="http://www.w3.org/2000/svg">
  <sodipodi:namedview
     id="namedview1"
     pagecolor="#505050"
     bordercolor="#ffffff"
     borderopacity="1"
     inkscape:showpageshadow="0"
     inkscape:pageopacity="0"
     inkscape:pagecheckerboard="1"
     inkscape:deskcolor="#505050"
     inkscape:document-units="mm"
     inkscape:zoom="1.4778115"
     inkscape:cx="549.46114"
     inkscape:cy="212.81469"
     inkscape:window-width="2560"
     inkscape:window-height="1369"
     inkscape:window-x="-8"
     inkscape:window-y="-8"
     inkscape:window-maximized="1"
     inkscape:current-layer="layer1" />
  <defs
     id="defs1" />
  <g
     inkscape:label="Layer 1"
     inkscape:groupmode="layer"
     id="layer1">
    <g
       id="g15"
       transform="translate(60.377479,-0.068496)">
      <rect
         style="fill:#ffffff;fill-opacity:1;stroke-width:0.264583"
         id="rect12"
         width="132.29167"
         height="132.29167"
         x="132.29166"
         y="-5.0862632e-06"
         ry="35.807453"
         transform="translate(-37.678914)" />
      <circle
         style="fill:#000000;fill-opacity:1;stroke-width:0.248281"
         id="path5"
         cx="160.75853"
         cy="66.145821"
         r="28.652929" />
      <circle
         style="fill:#000000;fill-opacity:1;stroke-width:0.248281"
         id="path5-3"
         cx="23.194546"
         cy="66.145821"
         r="28.652929" />
      <path
         d="M 149.40931,10.689097 V 121.60254 a 56.746379,56.746379 0 0 0 11.34927,1.28966 56.746379,56.746379 0 0 0 11.34928,-1.28966 V 10.552108 A 56.746379,56.746379 0 0 0 160.75858,9.3994474 56.746379,56.746379 0 0 0 149.40931,10.689097 Z"
         style="stroke-width:0.226985"
         id="path11" />
      <path
         d="M 126.71076,20.929602 A 56.746379,56.746379 0 0 0 104.0122,66.145824 56.746379,56.746379 0 0 0 126.71076,111.36204 Z"
         style="stroke-width:0.226985"
         id="path12" />
    </g>
    <g
       id="g25"
       transform="translate(5.2723761,1.4576465e-5)">
      <rect
         style="fill:#000000;fill-opacity:1;stroke-width:0.264583"
         id="rect12-6"
         width="132.29167"
         height="132.29167"
         x="-5.2723761"
         y="-1.4576465e-05"
         ry="35.807453" />
      <circle
         style="fill:#4caf50;fill-opacity:1;stroke-width:0.264583"
         id="path13"
         cx="97.045952"
         cy="29.973326"
         r="7.5195651" />
      <path
         d="M 60.873287,10.464478 A 55.68111,55.68111 0 0 0 5.1924479,66.145833 55.68111,55.68111 0 0 0 60.873287,121.82719 55.68111,55.68111 0 0 0 72.401782,120.47637 V 92.316329 A 28.652929,28.652929 0 0 1 60.873287,94.798865 28.652929,28.652929 0 0 1 32.220772,66.145833 28.652929,28.652929 0 0 1 60.873287,37.492802 28.652929,28.652929 0 0 1 72.401782,39.91901 V 11.684041 A 55.68111,55.68111 0 0 0 60.873287,10.464478 Z"
         style="fill:#ffffff;stroke-width:0.264583"
         id="path25" />
    </g>
  </g>
</svg>
